<svg xmlns="http://www.w3.org/2000/svg" width="30" height="25.2" viewBox="0 0 30 25.2">
  <g id="afternoon_icon" transform="translate(-898.5 -1181.3)">
    <path id="Sustracción_1" data-name="Sustracción 1" d="M3185.963-2711.3h-2.71a6.534,6.534,0,0,1-.151-1.4,6.509,6.509,0,0,1,6.5-6.5,6.509,6.509,0,0,1,6.5,6.5,6.552,6.552,0,0,1-.151,1.4h-2.71a3.855,3.855,0,0,0,.26-1.4,3.905,3.905,0,0,0-3.9-3.9,3.9,3.9,0,0,0-3.9,3.9,3.859,3.859,0,0,0,.26,1.4Zm16.642-.1H3200a1.3,1.3,0,0,1-1.3-1.3,1.3,1.3,0,0,1,1.3-1.3h2.6a1.3,1.3,0,0,1,1.3,1.3A1.3,1.3,0,0,1,3202.6-2711.4Zm-23.4,0h-2.6a1.3,1.3,0,0,1-1.3-1.3,1.3,1.3,0,0,1,1.3-1.3h2.6a1.3,1.3,0,0,1,1.3,1.3A1.3,1.3,0,0,1,3179.2-2711.4Zm3.053-7.356a1.294,1.294,0,0,1-.921-.38l-1.379-1.379a1.263,1.263,0,0,1-.38-.9,1.3,1.3,0,0,1,.38-.93,1.262,1.262,0,0,1,.912-.38,1.3,1.3,0,0,1,.922.38l1.378,1.379a1.315,1.315,0,0,1,0,1.833A1.262,1.262,0,0,1,3182.255-2718.753Zm14.712,0a1.339,1.339,0,0,1-.928-.375,1.261,1.261,0,0,1-.381-.9,1.293,1.293,0,0,1,.381-.93l1.378-1.379a1.262,1.262,0,0,1,.912-.38,1.294,1.294,0,0,1,.921.38,1.261,1.261,0,0,1,.381.9,1.292,1.292,0,0,1-.381.929l-1.378,1.379A1.252,1.252,0,0,1,3196.967-2718.758Zm-7.365-3.041a1.3,1.3,0,0,1-1.3-1.3v-2.6a1.3,1.3,0,0,1,1.3-1.3,1.3,1.3,0,0,1,1.3,1.3v2.6A1.3,1.3,0,0,1,3189.6-2721.8Z" transform="translate(-2276 3908.3)" fill="#8d8d8d"/>
    <line id="Línea_195" data-name="Línea 195" x2="28" transform="translate(899.5 1199.5)" fill="none" stroke="#8d8d8d" stroke-linecap="round" stroke-width="2"/>
    <line id="Línea_196" data-name="Línea 196" x2="22" transform="translate(902.5 1202.5)" fill="none" stroke="#8d8d8d" stroke-linecap="round" stroke-width="2"/>
    <line id="Línea_197" data-name="Línea 197" x2="14" transform="translate(906.5 1205.5)" fill="none" stroke="#8d8d8d" stroke-linecap="round" stroke-width="2"/>
  </g>
</svg>
