<svg xmlns="http://www.w3.org/2000/svg" width="55.117" height="57.401" viewBox="0 0 55.117 57.401">
  <g id="calendar_icon" transform="translate(-5.951)">
    <path id="Trazado_594" data-name="Trazado 594" d="M54.394,26.972H12.624a6.674,6.674,0,0,0-6.673,6.673V72.523A6.674,6.674,0,0,0,12.624,79.2h41.77a6.674,6.674,0,0,0,6.673-6.673V33.645a6.673,6.673,0,0,0-6.673-6.673Z" transform="translate(0 -21.795)" fill="#ebf0f3"/>
    <path id="Trazado_595" data-name="Trazado 595" d="M61.068,30.161V22.075A6.674,6.674,0,0,0,54.394,15.4H12.624a6.674,6.674,0,0,0-6.673,6.673v8.086Z" transform="translate(0 -12.446)" fill="#2d5cac"/>
    <path id="Trazado_596" data-name="Trazado 596" d="M61.068,41.019V33.645a6.674,6.674,0,0,0-6.673-6.673H12.624a6.674,6.674,0,0,0-6.673,6.673v7.374Z" transform="translate(0 -21.795)" fill="#518ef8"/>
    <path id="Trazado_597" data-name="Trazado 597" d="M53.1,45.645a2.329,2.329,0,1,0,2.329,2.329A2.329,2.329,0,0,0,53.1,45.645Z" transform="translate(-36.214 -36.884)" fill="#19335e"/>
    <path id="Trazado_598" data-name="Trazado 598" d="M57.656,0A1.246,1.246,0,0,0,56.41,1.246v9.708a1.246,1.246,0,1,0,2.492,0V1.246A1.246,1.246,0,0,0,57.656,0Z" transform="translate(-40.774)" fill="#4d5c7d"/>
    <path id="Trazado_599" data-name="Trazado 599" d="M110.849,45.645a2.329,2.329,0,1,0,2.329,2.329A2.329,2.329,0,0,0,110.849,45.645Z" transform="translate(-82.882 -36.884)" fill="#19335e"/>
    <path id="Trazado_600" data-name="Trazado 600" d="M115.409,0a1.246,1.246,0,0,0-1.246,1.246v9.708a1.246,1.246,0,0,0,2.492,0V1.246A1.246,1.246,0,0,0,115.409,0Z" transform="translate(-87.442)" fill="#4d5c7d"/>
    <path id="Trazado_601" data-name="Trazado 601" d="M168.6,45.645a2.329,2.329,0,1,0,2.329,2.329A2.329,2.329,0,0,0,168.6,45.645Z" transform="translate(-129.55 -36.884)" fill="#19335e"/>
    <path id="Trazado_602" data-name="Trazado 602" d="M173.162,0a1.246,1.246,0,0,0-1.246,1.246v9.708a1.246,1.246,0,0,0,2.492,0V1.246A1.246,1.246,0,0,0,173.162,0Z" transform="translate(-134.11)" fill="#4d5c7d"/>
    <path id="Trazado_603" data-name="Trazado 603" d="M226.355,45.645a2.329,2.329,0,1,0,2.329,2.329A2.329,2.329,0,0,0,226.355,45.645Z" transform="translate(-176.218 -36.884)" fill="#19335e"/>
    <path id="Trazado_604" data-name="Trazado 604" d="M230.914,0a1.246,1.246,0,0,0-1.246,1.246v9.708a1.246,1.246,0,0,0,2.492,0V1.246A1.246,1.246,0,0,0,230.914,0Z" transform="translate(-180.778)" fill="#4d5c7d"/>
    <g id="Grupo_1452" data-name="Grupo 1452" transform="translate(16.882 28.444)">
      <path id="Trazado_605" data-name="Trazado 605" d="M111.907,148.2h5.037v5.037h-5.037Z" transform="translate(-102.501 -148.197)" fill="#6787bf"/>
      <path id="Trazado_606" data-name="Trazado 606" d="M160.911,148.2h5.037v5.037h-5.037Z" transform="translate(-142.1 -148.197)" fill="#6787bf"/>
      <path id="Trazado_607" data-name="Trazado 607" d="M209.916,148.2h5.037v5.037h-5.037Z" transform="translate(-181.699 -148.197)" fill="#6787bf"/>
      <path id="Trazado_608" data-name="Trazado 608" d="M62.9,189.34h5.037v5.037H62.9Z" transform="translate(-62.902 -181.443)" fill="#6787bf"/>
      <path id="Trazado_609" data-name="Trazado 609" d="M111.907,189.34h5.037v5.037h-5.037Z" transform="translate(-102.501 -181.443)" fill="#6787bf"/>
      <path id="Trazado_610" data-name="Trazado 610" d="M160.911,189.34h5.037v5.037h-5.037Z" transform="translate(-142.1 -181.443)" fill="#6787bf"/>
      <path id="Trazado_611" data-name="Trazado 611" d="M209.916,189.34h5.037v5.037h-5.037Z" transform="translate(-181.699 -181.443)" fill="#6787bf"/>
      <path id="Trazado_612" data-name="Trazado 612" d="M62.9,230.483h5.037v5.037H62.9Z" transform="translate(-62.902 -214.689)" fill="#6787bf"/>
      <path id="Trazado_613" data-name="Trazado 613" d="M111.907,230.483h5.037v5.037h-5.037Z" transform="translate(-102.501 -214.689)" fill="#6787bf"/>
      <path id="Trazado_614" data-name="Trazado 614" d="M160.911,230.483h5.037v5.037h-5.037Z" transform="translate(-142.1 -214.689)" fill="#6787bf"/>
    </g>
  </g>
</svg>
