<svg id="coco_logo" xmlns="http://www.w3.org/2000/svg" xmlns:xlink="http://www.w3.org/1999/xlink" width="122.119" height="22.904" viewBox="0 0 122.119 22.904">
  <defs>
    <linearGradient id="linear-gradient" y1="0.5" x2="1" y2="0.5" gradientUnits="objectBoundingBox">
      <stop offset="0" stop-color="#282e3a"/>
      <stop offset="1"/>
    </linearGradient>
    <linearGradient id="linear-gradient-2" x1="1" y1="0.5" x2="0" y2="0.5" xlink:href="#linear-gradient"/>
  </defs>
  <g id="Capa_1" data-name="Capa 1">
    <path id="Trazado_536" data-name="Trazado 536" d="M1466.2,192.939a7.731,7.731,0,0,1-1.322.811,6.658,6.658,0,0,1-1.551.523,9.1,9.1,0,0,1-1.863.174,7.387,7.387,0,0,1-2.957-.583,7.255,7.255,0,0,1-2.343-1.593,7.338,7.338,0,0,1-1.551-2.384,7.668,7.668,0,0,1-.562-2.956A7.8,7.8,0,0,1,1454.6,184a7.257,7.257,0,0,1,3.926-4.029,7.585,7.585,0,0,1,3.04-.594,9.225,9.225,0,0,1,1.822.167,7.449,7.449,0,0,1,1.51.468,7.077,7.077,0,0,1,1.27.719,9.878,9.878,0,0,1,1.1.916l-1.645,1.895a8.208,8.208,0,0,0-1.853-1.312,4.829,4.829,0,0,0-2.228-.5,4.557,4.557,0,0,0-1.926.406,4.764,4.764,0,0,0-1.531,1.1,4.96,4.96,0,0,0-1,1.635,5.677,5.677,0,0,0-.354,2.019,5.759,5.759,0,0,0,.354,2.03,5.05,5.05,0,0,0,1,1.657,4.691,4.691,0,0,0,1.531,1.114,4.557,4.557,0,0,0,1.926.406,4.81,4.81,0,0,0,2.29-.51,9.008,9.008,0,0,0,1.895-1.384l1.645,1.666a9.368,9.368,0,0,1-1.178,1.072" transform="translate(-1390.626 -171.549)" fill="#0e1424"/>
    <path id="Trazado_537" data-name="Trazado 537" d="M2157.04,192.975a7.753,7.753,0,0,1-1.322.811,6.663,6.663,0,0,1-1.552.523,9.108,9.108,0,0,1-1.864.177,7.39,7.39,0,0,1-2.957-.583,7.2,7.2,0,0,1-3.894-3.977,8.071,8.071,0,0,1-.01-5.893,7.256,7.256,0,0,1,3.926-4.029,7.585,7.585,0,0,1,3.04-.594,9.225,9.225,0,0,1,1.822.165,7.446,7.446,0,0,1,1.51.468,7.063,7.063,0,0,1,1.27.719,9.877,9.877,0,0,1,1.1.916l-1.645,1.895a8.227,8.227,0,0,0-1.853-1.312,4.83,4.83,0,0,0-2.228-.5,4.561,4.561,0,0,0-1.926.406,4.776,4.776,0,0,0-1.531,1.1,4.96,4.96,0,0,0-1,1.635,5.66,5.66,0,0,0-.354,2.019,5.754,5.754,0,0,0,.354,2.03,5.056,5.056,0,0,0,1,1.657,4.7,4.7,0,0,0,1.531,1.114,4.561,4.561,0,0,0,1.926.406,4.808,4.808,0,0,0,2.29-.51,9.034,9.034,0,0,0,1.9-1.384l1.645,1.666a9.409,9.409,0,0,1-1.178,1.072" transform="translate(-2051.339 -171.586)" fill="#0e1424"/>
    <path id="Trazado_538" data-name="Trazado 538" d="M2465.091,189.812a7.33,7.33,0,0,1-1.582,2.4,7.6,7.6,0,0,1-5.5,2.238,7.8,7.8,0,0,1-3.083-.594,7.235,7.235,0,0,1-3.956-4.008,7.837,7.837,0,0,1,0-5.83,7.324,7.324,0,0,1,1.582-2.4,7.607,7.607,0,0,1,5.5-2.238,7.775,7.775,0,0,1,3.081.594,7.234,7.234,0,0,1,3.956,4.008,7.838,7.838,0,0,1,0,5.831m-2.488-4.883a5.108,5.108,0,0,0-1.02-1.657,4.875,4.875,0,0,0-1.57-1.124,5.041,5.041,0,0,0-3.988-.01,4.708,4.708,0,0,0-1.552,1.1,5.077,5.077,0,0,0-1.01,1.645,5.717,5.717,0,0,0,0,4.019,5.092,5.092,0,0,0,1.02,1.655,4.844,4.844,0,0,0,1.57,1.124,5.038,5.038,0,0,0,3.988.01,4.711,4.711,0,0,0,1.552-1.1,5.088,5.088,0,0,0,1.01-1.645,5.72,5.72,0,0,0,0-4.019" transform="translate(-2343.533 -171.556)" fill="#0e1424"/>
    <path id="Trazado_539" data-name="Trazado 539" d="M1849.4,324.605a.3.3,0,0,0-.425-.019l-1.208,1.112a.3.3,0,0,0-.016.425l.469.512,0,0,0,0,.911-.838.843.916.516-.474a.3.3,0,0,0,.017-.423Z" transform="translate(-1767.083 -310.354)" fill="#0e1424"/>
    <path id="Trazado_540" data-name="Trazado 540" d="M1946.686,328.632a.3.3,0,0,0-.423-.017l-1.208,1.112a.3.3,0,0,0-.02.423l.476.516.913-.84.843.916.516-.475a.3.3,0,0,0,.02-.423Z" transform="translate(-1860.126 -314.206)" fill="#0e1424"/>
    <path id="Trazado_541" data-name="Trazado 541" d="M1758.559,13.872l-.094,0a7.379,7.379,0,0,0-3.974-4.957,6.411,6.411,0,0,0-1.154-.49l.262-.654.159-.393,0-.009.012-.031,0-.013.494-1.235.272-.682-.018.039.016-.039.035-.087a6.817,6.817,0,0,0-.744-.124l-.076-.007a6.153,6.153,0,0,0-.9-.019c-.116.006-.23.014-.341.026l.075-.215h0l.443-1.242.782-2.2L1754.358,0l-1.071,1.352-2.82,3.557-.022.027-.607.765-.885,1.114-.491.622-.006.007-.019.024a8.548,8.548,0,0,1,1.015-.3c.028,0,.058-.012.087-.019a8.39,8.39,0,0,1,1.694-.182l-.008.017-.009.018-.226.436-.382.741a6.286,6.286,0,0,0-.721.135h0a7.321,7.321,0,0,0-2.748,1.157,7.411,7.411,0,0,0-1.443,1.3h0c-.082.1-.159.191-.234.289a7.3,7.3,0,0,0-.988,1.735.871.871,0,0,0-.043.112c-.008.017-.014.036-.021.054-.05.131-.1.268-.137.4l-.094,0a.916.916,0,0,0-.947.884l-.074,2.015a.916.916,0,0,0,.884.946l.092,0a7.133,7.133,0,0,0,.272.9c.013.039.029.079.046.117a7.181,7.181,0,0,0,1.008,1.784,7.275,7.275,0,0,0,1.2,1.23l.134.108c.06.044.119.091.181.135s.125.087.187.133c.025.017.048.033.072.048l.046.03c.061.04.122.081.185.119l.131.08c.044.027.093.052.138.079s.072.039.108.059c.112.06.225.118.339.172l.039.017c.153.072.308.136.465.2.053.019.107.041.159.058s.107.039.161.056c.107.035.218.068.327.1.054.014.111.031.167.044q.17.044.341.079c.112.021.223.044.337.059.048.007.093.014.14.02s.084.012.127.015l.041.006c.05.007.1.013.154.015.076.008.15.012.226.016s.134.007.2.009c.052,0,.106,0,.161,0l.071,0c.12,0,.236,0,.353-.008h.039c.044,0,.087-.006.128-.01a.3.3,0,0,0,.048,0l.051,0a.034.034,0,0,1,.014,0c.056,0,.112-.01.167-.017s.1-.012.145-.016h.008a.154.154,0,0,1,.031,0,.238.238,0,0,0,.035,0l.281-.044c.06-.01.12-.023.18-.035s.119-.024.178-.039c.119-.027.237-.058.354-.091s.213-.063.32-.1c.039-.013.074-.027.112-.038.068-.025.134-.049.2-.076.153-.06.305-.122.454-.194l.148-.071c.136-.068.27-.14.4-.216.07-.04.138-.08.2-.123.123-.076.246-.157.364-.241.053-.036.1-.073.154-.112a7.36,7.36,0,0,0,2.477-3.228c.067-.171.127-.346.182-.523l.094,0a.916.916,0,0,0,.947-.883l.069-2.009a.916.916,0,0,0-.883-.946Zm-7.259,7.107a5.39,5.39,0,0,1-2.644-.689h0a5.459,5.459,0,0,1-2.073-2.059c-.023-.039-.043-.078-.066-.117a5.371,5.371,0,0,1-.649-2.569c0-.131.006-.258.014-.385a5.35,5.35,0,0,1,.635-2.186c.029-.056.061-.11.093-.166a5.131,5.131,0,0,1,.407-.6,5.433,5.433,0,0,1,8.861.407c.043.064.081.128.118.193a5.4,5.4,0,0,1,.741,2.737v.116a5.437,5.437,0,0,1-5.433,5.321Z" transform="translate(-1667.129)" fill="#0e1424"/>
    <path id="Trazado_542" data-name="Trazado 542" d="M1849.4,324.605a.3.3,0,0,0-.425-.019l-1.208,1.112a.3.3,0,0,0-.016.425l.469.512,0,0,0,0,.911-.838.843.916.516-.474a.3.3,0,0,0,.017-.423Z" transform="translate(-1767.083 -310.354)" fill="#0e1424"/>
    <path id="Trazado_543" data-name="Trazado 543" d="M1946.686,328.632a.3.3,0,0,0-.423-.017l-1.208,1.112a.3.3,0,0,0-.02.423l.476.516.913-.84.843.916.516-.475a.3.3,0,0,0,.02-.423Z" transform="translate(-1860.126 -314.206)" fill="#0e1424"/>
    <path id="Trazado_544" data-name="Trazado 544" d="M1758.654,196.322l-.094,0a7.378,7.378,0,0,0-3.974-4.957,6.4,6.4,0,0,1-1.754,11.873,5.431,5.431,0,0,1-4.079-.5h0a6.4,6.4,0,0,1,1.23-11.968,7.32,7.32,0,0,0-2.748,1.157,7.4,7.4,0,0,0-1.443,1.3h0c-.083.1-.159.191-.234.289a7.31,7.31,0,0,0-.988,1.735.91.91,0,0,0-.044.112c-.007.017-.014.036-.02.054-.05.131-.1.268-.137.4l-.094,0a.916.916,0,0,0-.946.884l-.07,2.009a.916.916,0,0,0,.884.946l.092,0a7.215,7.215,0,0,0,.272.9c.013.039.029.079.046.117a7.307,7.307,0,0,0,2.207,3.014l.135.108c.06.044.119.091.181.135s.124.087.187.133c.025.017.047.033.072.048l.046.03c.061.04.122.081.185.119l.131.08c.043.027.093.052.138.079s.072.039.108.059c.112.06.225.118.339.172l.039.017c.153.072.308.136.465.2.053.019.107.041.159.058s.107.039.161.056c.107.035.218.068.327.1.054.014.111.03.167.044q.17.044.341.079c.112.021.223.044.337.059.048.007.093.014.14.02s.084.012.127.015l.041.006c.05.007.1.013.153.015.076.008.151.012.227.016s.134.007.2.009c.052,0,.106,0,.161,0l.071,0c.12,0,.236,0,.353-.008h.039c.044,0,.087-.006.128-.01a.3.3,0,0,0,.048,0l.051,0a.035.035,0,0,1,.014,0q.084-.007.167-.017c.049-.006.1-.012.145-.016h.009a.154.154,0,0,1,.031,0,.242.242,0,0,0,.035,0l.281-.044c.06-.01.12-.023.18-.035s.119-.024.178-.039c.119-.027.237-.058.354-.091s.213-.063.32-.1c.039-.013.074-.027.112-.038.068-.025.134-.049.2-.076.154-.06.305-.122.455-.194l.148-.071q.2-.1.4-.216c.07-.04.138-.08.2-.123.123-.077.246-.157.364-.241.053-.036.1-.073.155-.112a7.36,7.36,0,0,0,2.472-3.225c.067-.171.127-.346.182-.523l.094,0a.916.916,0,0,0,.948-.883l.069-2.009A.916.916,0,0,0,1758.654,196.322Z" transform="translate(-1667.224 -182.449)" fill="url(#linear-gradient)"/>
    <path id="Trazado_545" data-name="Trazado 545" d="M1798.92,14.524a6.4,6.4,0,0,1-5.085,6.259,5.456,5.456,0,0,0,3.287-2.552,5.4,5.4,0,0,0,.711-2.573v-.116a5.4,5.4,0,0,0-.742-2.737c-.038-.065-.077-.131-.119-.193a5.432,5.432,0,0,0-8.861-.407,5.129,5.129,0,0,0-.407.6c-.031.056-.064.11-.093.166a5.351,5.351,0,0,0-.635,2.186c-.008.127-.014.255-.014.385a5.369,5.369,0,0,0,.649,2.569c.021.04.043.079.066.117a5.457,5.457,0,0,0,2.073,2.059,6.4,6.4,0,0,1,1.23-11.968h0a6.31,6.31,0,0,1,.721-.135l.382-.741.226-.436.009-.018.008-.017a8.388,8.388,0,0,0-1.694.182c-.03.007-.06.014-.087.019a8.54,8.54,0,0,0-1.014.3l.019-.024.005-.007.5-.624.885-1.114.607-.765.022-.027,2.82-3.557L1795.457,0l-.546,1.541-.782,2.2-.443,1.242h0l-.075.215c.111-.012.225-.02.341-.026a6.154,6.154,0,0,1,.9.019l.076.007a6.827,6.827,0,0,1,.744.124l-.035.087-.016.039.018-.039-.27.682-.494,1.231-.005.013-.012.031,0,.009-.159.393-.262.657a6.4,6.4,0,0,1,4.483,6.1Z" transform="translate(-1708.228)" fill="url(#linear-gradient-2)"/>
    <path id="Trazado_546" data-name="Trazado 546" d="M3.616,302.243a1.866,1.866,0,0,1,.838.7,2.127,2.127,0,0,1,0,2.151,1.855,1.855,0,0,1-.838.7,3.145,3.145,0,0,1-1.284.243H1.053v1.635H0V302H2.333A3.14,3.14,0,0,1,3.616,302.243Zm-.287,2.608a1.154,1.154,0,0,0,0-1.668,1.616,1.616,0,0,0-1.045-.292H1.053v2.251H2.284a1.618,1.618,0,0,0,1.045-.291Z" transform="translate(0 -288.828)" fill="#0e1424"/>
    <path id="Trazado_547" data-name="Trazado 547" d="M127.014,305.566a2.785,2.785,0,0,1-1.093-1.045,3.009,3.009,0,0,1,0-2.989,2.786,2.786,0,0,1,1.093-1.047,3.434,3.434,0,0,1,3.126,0,2.8,2.8,0,0,1,1.093,1.041,3.027,3.027,0,0,1,0,3,2.8,2.8,0,0,1-1.093,1.041,3.438,3.438,0,0,1-3.126,0Zm2.584-.8a1.85,1.85,0,0,0,.713-.713,2.156,2.156,0,0,0,0-2.05,1.848,1.848,0,0,0-.713-.713,2.172,2.172,0,0,0-2.041,0,1.845,1.845,0,0,0-.713.713,2.156,2.156,0,0,0,0,2.05,1.847,1.847,0,0,0,.713.713A2.168,2.168,0,0,0,129.6,304.765Z" transform="translate(-120.049 -287.02)" fill="#0e1424"/>
    <path id="Trazado_548" data-name="Trazado 548" d="M283.478,302l-1.878,5.67h-1.119l-1.4-4.2-1.425,4.2h-1.126L274.65,302h1.093l1.408,4.309L278.619,302h.972l1.434,4.333L282.473,302Z" transform="translate(-262.671 -288.828)" fill="#0e1424"/>
    <path id="Trazado_549" data-name="Trazado 549" d="M500.992,306.787v.883H496.74V302h4.139v.883h-3.086v1.472h2.738v.867h-2.738v1.563Z" transform="translate(-475.074 -288.828)" fill="#0e1424"/>
    <path id="Trazado_550" data-name="Trazado 550" d="M624.87,307.67l-1.158-1.66a2.058,2.058,0,0,1-.218.008h-1.28v1.652H621.16V302h2.333a3.14,3.14,0,0,1,1.284.243,1.868,1.868,0,0,1,.838.7,1.946,1.946,0,0,1,.293,1.076,1.922,1.922,0,0,1-.312,1.1,1.853,1.853,0,0,1-.895.688l1.3,1.863Zm-.381-4.487a1.621,1.621,0,0,0-1.047-.292h-1.229v2.26h1.231a1.609,1.609,0,0,0,1.047-.3,1.158,1.158,0,0,0,0-1.673Z" transform="translate(-594.068 -288.828)" fill="#0e1424"/>
    <path id="Trazado_551" data-name="Trazado 551" d="M761.152,306.787v.883H756.9V302h4.139v.883h-3.088v1.472h2.738v.867h-2.738v1.563Z" transform="translate(-723.887 -288.828)" fill="#0e1424"/>
    <path id="Trazado_552" data-name="Trazado 552" d="M881.32,302H883.8a3.57,3.57,0,0,1,1.614.352,2.606,2.606,0,0,1,1.093,1,3.032,3.032,0,0,1,0,2.972,2.6,2.6,0,0,1-1.093,1,3.56,3.56,0,0,1-1.614.352H881.32Zm2.428,4.779a2.411,2.411,0,0,0,1.1-.239,1.709,1.709,0,0,0,.729-.68,2.185,2.185,0,0,0,0-2.049,1.709,1.709,0,0,0-.729-.68,2.4,2.4,0,0,0-1.1-.239h-1.376v3.888Z" transform="translate(-842.88 -288.828)" fill="#0e1424"/>
    <path id="Trazado_553" data-name="Trazado 553" d="M1090.76,305.236a1.432,1.432,0,0,1,.275.895,1.31,1.31,0,0,1-.567,1.138,2.855,2.855,0,0,1-1.652.4H1086V302h2.657a2.613,2.613,0,0,1,1.547.393,1.257,1.257,0,0,1,.543,1.081,1.418,1.418,0,0,1-.195.745,1.327,1.327,0,0,1-.534.5,1.494,1.494,0,0,1,.743.515Zm-3.71-2.41v1.563h1.49a1.516,1.516,0,0,0,.847-.2.653.653,0,0,0,.3-.579.661.661,0,0,0-.3-.588,1.519,1.519,0,0,0-.847-.2Zm2.922,3.2q0-.818-1.221-.818h-1.7v1.636h1.7q1.223,0,1.223-.818Z" transform="translate(-1038.633 -288.828)" fill="#0e1424"/>
    <path id="Trazado_554" data-name="Trazado 554" d="M1208.63,305.669v2h-1.053v-1.984L1205.35,302h1.126l1.661,2.762,1.677-2.762h1.037Z" transform="translate(-1152.778 -288.828)" fill="#0e1424"/>
  </g>
</svg>
