<svg id="morning" xmlns="http://www.w3.org/2000/svg" width="31" height="31" viewBox="0 0 31 31">
  <rect id="Rectángulo_1097" data-name="Rectángulo 1097" width="31" height="31" fill="none"/>
  <path id="Trazado_615" data-name="Trazado 615" d="M15.3,11.4a3.9,3.9,0,1,1-3.9,3.9,3.912,3.912,0,0,1,3.9-3.9m0-2.6a6.5,6.5,0,1,0,6.5,6.5,6.5,6.5,0,0,0-6.5-6.5Zm-13,7.8H4.9a1.3,1.3,0,1,0,0-2.6H2.3a1.3,1.3,0,1,0,0,2.6Zm23.4,0h2.6a1.3,1.3,0,1,0,0-2.6H25.7a1.3,1.3,0,1,0,0,2.6ZM14,2.3V4.9a1.3,1.3,0,1,0,2.6,0V2.3a1.3,1.3,0,1,0-2.6,0Zm0,23.4v2.6a1.3,1.3,0,1,0,2.6,0V25.7a1.3,1.3,0,1,0-2.6,0ZM7.488,5.655A1.3,1.3,0,0,0,5.655,7.488L7.033,8.867A1.3,1.3,0,0,0,8.867,7.033ZM23.572,21.739a1.3,1.3,0,1,0-1.833,1.833l1.378,1.378a1.3,1.3,0,0,0,1.833-1.833ZM24.951,7.488a1.3,1.3,0,0,0-1.833-1.833L21.739,7.033a1.3,1.3,0,1,0,1.833,1.833ZM8.867,23.572a1.3,1.3,0,1,0-1.833-1.833L5.655,23.117a1.3,1.3,0,0,0,1.833,1.833Z" transform="translate(0.3 0.3)" fill="#8d8d8d"/>
</svg>
