<svg id="new_icon" xmlns="http://www.w3.org/2000/svg" width="62.093" height="62.093" viewBox="0 0 62.093 62.093">
  <g id="Capa_1" data-name="Capa 1" transform="translate(0)">
    <path id="Trazado_464" data-name="Trazado 464" d="M31.036,0A31.046,31.046,0,1,0,62.083,31.044,31.046,31.046,0,0,0,31.036,0Zm0,56.478A25.438,25.438,0,1,1,56.475,31.039,25.438,25.438,0,0,1,31.036,56.478Z" transform="translate(0.01)" fill="#249dff"/>
    <path id="Trazado_465" data-name="Trazado 465" d="M50.886,36.6H40.693V26.4a2.107,2.107,0,0,0-4.208,0V36.6H26.292a2.107,2.107,0,1,0,0,4.208H36.486V51a2.107,2.107,0,0,0,4.208,0V40.8H50.886a2.107,2.107,0,0,0,0-4.208Z" transform="translate(-7.54 -7.656)" fill="#249dff"/>
  </g>
</svg>
