<svg id="Phone_icon" xmlns="http://www.w3.org/2000/svg" width="38" height="38" viewBox="0 0 38 38">
  <path id="Trazado_559" data-name="Trazado 559" d="M0,0H38V38H0Z" fill="none"/>
  <path id="Trazado_560" data-name="Trazado 560" d="M8.732,15.334A23.985,23.985,0,0,0,19.166,25.768l3.483-3.483a1.574,1.574,0,0,1,1.615-.38,18.061,18.061,0,0,0,5.653.9A1.588,1.588,0,0,1,31.5,24.391v5.526A1.588,1.588,0,0,1,29.917,31.5,26.914,26.914,0,0,1,3,4.583,1.588,1.588,0,0,1,4.583,3h5.542a1.588,1.588,0,0,1,1.583,1.583,17.987,17.987,0,0,0,.9,5.652,1.589,1.589,0,0,1-.4,1.615Z" transform="translate(1.75 1.75)"/>
</svg>
