<svg id="Presencial" xmlns="http://www.w3.org/2000/svg" width="45" height="42" viewBox="0 0 45 42">
  <path id="Trazado_555" data-name="Trazado 555" d="M0,0H45V42H0Z" fill="none"/>
  <path id="Trazado_556" data-name="Trazado 556" d="M35.813,9a68.087,68.087,0,0,1-15.938,1.75A68.087,68.087,0,0,1,3.938,9L3,12.5a70.825,70.825,0,0,0,11.25,1.75V37H18V26.5h3.75V37H25.5V14.25A70.825,70.825,0,0,0,36.75,12.5ZM19.875,9a3.642,3.642,0,0,0,3.75-3.5A3.642,3.642,0,0,0,19.875,2a3.642,3.642,0,0,0-3.75,3.5A3.642,3.642,0,0,0,19.875,9Z" transform="translate(2.625 1.5)"/>
</svg>
