<svg xmlns="http://www.w3.org/2000/svg" width="59.856" height="55.246" viewBox="0 0 59.856 55.246">
  <g id="print_icon" transform="translate(0 -19.653)">
    <path id="Trazado_563" data-name="Trazado 563" d="M65.8,129.92H63.326a4.039,4.039,0,0,0-4.034,4.034V137a.88.88,0,0,0,.88.88H65.8a.88.88,0,0,0,.88-.88v-6.2A.88.88,0,0,0,65.8,129.92Z" transform="translate(-52.338 -97.334)" fill="#78777e"/>
    <path id="Trazado_564" data-name="Trazado 564" d="M391.38,129.92H388.9a.88.88,0,0,0-.88.88V137a.88.88,0,0,0,.88.88h5.632a.88.88,0,0,0,.88-.88v-3.047A4.039,4.039,0,0,0,391.38,129.92Z" transform="translate(-342.512 -97.334)" fill="#78777e"/>
    <path id="Trazado_565" data-name="Trazado 565" d="M59.294,163.291c0,.04,0,.08,0,.12v3.047a.88.88,0,0,0,.88.88H65.8a.88.88,0,0,0,.88-.88v-3.167Z" transform="translate(-52.337 -126.791)" fill="#67676b"/>
    <path id="Trazado_566" data-name="Trazado 566" d="M388.9,167.337h5.632a.88.88,0,0,0,.88-.88v-3.047c0-.04,0-.08,0-.12h-7.388v3.167A.88.88,0,0,0,388.9,167.337Z" transform="translate(-342.512 -126.791)" fill="#67676b"/>
    <path id="Trazado_567" data-name="Trazado 567" d="M141.734,26.269l-6.358-6.358a.879.879,0,0,0-.622-.258H108.188a.88.88,0,0,0-.88.88V39.667a.88.88,0,0,0,.88.88h32.925a.88.88,0,0,0,.88-.88V26.891A.879.879,0,0,0,141.734,26.269Z" transform="translate(-94.722)" fill="#e0e0e0"/>
    <path id="Trazado_568" data-name="Trazado 568" d="M107.308,163.291v3.167a.88.88,0,0,0,.88.88h32.925a.88.88,0,0,0,.88-.88v-3.167Z" transform="translate(-94.722 -126.791)" fill="#c4c4c4"/>
    <path id="Trazado_569" data-name="Trazado 569" d="M341.671,26.269l-6.358-6.358a.88.88,0,0,0-1.5.622v6.358a.88.88,0,0,0,.88.88h6.358a.88.88,0,0,0,.622-1.5Z" transform="translate(-294.659 0)" fill="#aaa"/>
    <path id="Trazado_570" data-name="Trazado 570" d="M59.839,203.746l-1.5-16.913a4.411,4.411,0,0,0-4.417-4.042H5.936a4.411,4.411,0,0,0-4.417,4.042l-1.5,16.913a4.434,4.434,0,0,0,4.417,4.826H55.422a4.434,4.434,0,0,0,4.417-4.826Z" transform="translate(0 -144.004)" fill="#78777e"/>
    <path id="Trazado_571" data-name="Trazado 571" d="M59.624,340.9a4.429,4.429,0,0,1-4.2,3.024H4.434a4.429,4.429,0,0,1-4.2-3.024l-.214,2.411a4.434,4.434,0,0,0,4.417,4.826H55.422a4.434,4.434,0,0,0,4.417-4.826Z" transform="translate(0 -283.566)" fill="#67676b"/>
    <rect id="Rectángulo_1089" data-name="Rectángulo 1089" width="40.64" height="3.167" transform="translate(9.608 54.256)" fill="#67676b"/>
    <path id="Trazado_572" data-name="Trazado 572" d="M141.112,307.182H108.188a.88.88,0,0,0-.88.88v19.762a.88.88,0,0,0,.88.88h32.925a.88.88,0,0,0,.88-.88V308.062A.88.88,0,0,0,141.112,307.182Z" transform="translate(-94.722 -253.805)" fill="#e0e0e0"/>
    <path id="Trazado_573" data-name="Trazado 573" d="M141.112,307.182H108.188a.88.88,0,0,0-.88.88v3.167h34.684v-3.167A.88.88,0,0,0,141.112,307.182Z" transform="translate(-94.722 -253.805)" fill="#c4c4c4"/>
    <path id="Trazado_574" data-name="Trazado 574" d="M115.935,311.5a.88.88,0,0,1-.88-.88v-1.681H76.174v1.681a.88.88,0,0,1-1.759,0v-2.561a.88.88,0,0,1,.88-.88h40.64a.88.88,0,0,1,.88.88v2.561A.88.88,0,0,1,115.935,311.5Z" transform="translate(-65.687 -253.805)" fill="#494949"/>
    <path id="Trazado_575" data-name="Trazado 575" d="M423.907,229.819a1.475,1.475,0,1,1,1.475-1.475A1.477,1.477,0,0,1,423.907,229.819Z" transform="translate(-372.886 -182.912)" fill="#80d862"/>
    <path id="Trazado_576" data-name="Trazado 576" d="M386.448,229.819a1.475,1.475,0,1,1,1.475-1.475A1.476,1.476,0,0,1,386.448,229.819Z" transform="translate(-339.82 -182.912)" fill="#ffdb56"/>
    <path id="Trazado_577" data-name="Trazado 577" d="M348.988,229.819a1.475,1.475,0,1,1,1.475-1.475A1.476,1.476,0,0,1,348.988,229.819Z" transform="translate(-306.754 -182.912)" fill="#e93234"/>
    <path id="Trazado_578" data-name="Trazado 578" d="M430.141,226.87a1.462,1.462,0,0,0-.646.151,1.471,1.471,0,0,1,0,2.647,1.474,1.474,0,1,0,.646-2.8Z" transform="translate(-379.12 -182.913)" fill="#50c436"/>
    <path id="Trazado_579" data-name="Trazado 579" d="M392.681,226.87a1.462,1.462,0,0,0-.646.151,1.471,1.471,0,0,1,0,2.647,1.474,1.474,0,1,0,.646-2.8Z" transform="translate(-346.054 -182.913)" fill="#ffc41f"/>
    <path id="Trazado_580" data-name="Trazado 580" d="M355.222,226.87a1.462,1.462,0,0,0-.646.151,1.471,1.471,0,0,1,0,2.647,1.462,1.462,0,0,0,.646.151,1.475,1.475,0,1,0,0-2.95Z" transform="translate(-312.988 -182.913)" fill="#d6252e"/>
  </g>
</svg>
