<svg xmlns="http://www.w3.org/2000/svg" width="78" height="78" viewBox="0 0 78 78">
  <g id="recomentadion_note_icon" transform="translate(0.316 0.401)">
    <g id="Grupo_1582" data-name="Grupo 1582" transform="translate(-0.401 -0.401)">
      <rect id="Rectángulo_1102" data-name="Rectángulo 1102" width="78" height="78" transform="translate(0.086)" fill="none"/>
    </g>
    <path id="Trazado_616" data-name="Trazado 616" d="M18,11v6.452H30.9V11Z" transform="translate(40.131 24.549)" fill="#1964a0"/>
    <path id="Trazado_617" data-name="Trazado 617" d="M16,21.194c3.1,2.29,7.129,5.323,10.323,7.71,1.29-1.71,2.581-3.452,3.871-5.162C27,21.355,22.968,18.323,19.871,16,18.581,17.742,17.29,19.484,16,21.194Z" transform="translate(35.679 35.679)" fill="#1964a0"/>
    <path id="Trazado_618" data-name="Trazado 618" d="M30.194,9.162C28.9,7.452,27.614,5.71,26.323,4,23.129,6.387,19.1,9.42,16,11.742c1.29,1.71,2.581,3.452,3.871,5.162C22.968,14.581,27,11.581,30.194,9.162Z" transform="translate(35.679 8.967)" fill="#1964a0"/>
    <path id="Trazado_619" data-name="Trazado 619" d="M8.452,15.678A6.471,6.471,0,0,0,2,22.13v6.452a6.471,6.471,0,0,0,6.452,6.452h3.226v12.9H18.13v-12.9h3.226l16.13,9.678V6l-16.13,9.678Zm16.227,5.516,6.355-3.807V33.324l-6.355-3.807-1.548-.936H8.452V22.13H23.13Z" transform="translate(4.515 13.419)" fill="#1964a0"/>
    <path id="Trazado_620" data-name="Trazado 620" d="M18.839,19.457A14.453,14.453,0,0,0,14,8.65V30.232A14.331,14.331,0,0,0,18.839,19.457Z" transform="translate(31.227 19.318)" fill="#1964a0"/>
  </g>
</svg>
